<svg width="84" height="84" viewBox="0 0 84 84" fill="none" xmlns="http://www.w3.org/2000/svg">
<path d="M73.1328 65.1526V43.7787H78.6059V65.1526H73.1328Z" fill="#0582FF"/>
<path d="M66.0214 65.1526V62.2432L65.6469 61.5231V56.1652C65.6469 55.301 65.3781 54.6385 64.8404 54.1776C64.3219 53.6975 63.4865 53.4575 62.3343 53.4575C61.5853 53.4575 60.8268 53.5823 60.0586 53.8319C59.2905 54.0624 58.6376 54.3889 58.0999 54.8113L56.2563 51.0954C57.1397 50.5193 58.1959 50.0776 59.4249 49.7703C60.6732 49.4439 61.9118 49.2806 63.1409 49.2806C65.6758 49.2806 67.6345 49.8664 69.0172 51.0378C70.4191 52.19 71.12 54.0048 71.12 56.4821V65.1526H66.0214ZM61.4125 65.4118C60.1643 65.4118 59.108 65.2006 58.2439 64.7781C57.3797 64.3556 56.7172 63.7795 56.2563 63.0498C55.8146 62.32 55.5938 61.5039 55.5938 60.6013C55.5938 59.6411 55.8338 58.8153 56.3139 58.124C56.8132 57.4135 57.5717 56.8757 58.5895 56.5109C59.6073 56.1268 60.9228 55.9348 62.5359 55.9348H66.2231V58.7865H63.2849C62.4015 58.7865 61.7774 58.9306 61.4125 59.2186C61.0668 59.5067 60.894 59.8907 60.894 60.3708C60.894 60.8509 61.0764 61.235 61.4413 61.5231C61.8062 61.8111 62.3055 61.9552 62.9392 61.9552C63.5345 61.9552 64.0722 61.8111 64.5523 61.5231C65.0516 61.2158 65.4165 60.7549 65.6469 60.1404L66.3959 62.1568C66.1078 63.2322 65.5413 64.0484 64.6964 64.6053C63.8706 65.143 62.776 65.4118 61.4125 65.4118Z" fill="#0582FF"/>
<path d="M48.5484 65.4118C46.8201 65.4118 45.2742 65.0662 43.9107 64.3748C42.5664 63.6835 41.5102 62.7329 40.7421 61.5231C39.9739 60.294 39.5898 58.8921 39.5898 57.3174C39.5898 55.7427 39.9739 54.3504 40.7421 53.1406C41.5102 51.9308 42.5664 50.9898 43.9107 50.3176C45.2742 49.6263 46.8201 49.2806 48.5484 49.2806C50.3152 49.2806 51.8419 49.6551 53.1285 50.4041C54.4152 51.153 55.3274 52.2092 55.8651 53.5727L51.6306 55.7331C51.2658 55.0034 50.8145 54.4753 50.2768 54.1488C49.7391 53.8031 49.1533 53.6303 48.5196 53.6303C47.8859 53.6303 47.3098 53.7743 46.7913 54.0624C46.2728 54.3504 45.8599 54.7729 45.5526 55.3298C45.2646 55.8675 45.1205 56.5301 45.1205 57.3174C45.1205 58.124 45.2646 58.8057 45.5526 59.3626C45.8599 59.9195 46.2728 60.342 46.7913 60.6301C47.3098 60.9181 47.8859 61.0622 48.5196 61.0622C49.1533 61.0622 49.7391 60.8989 50.2768 60.5725C50.8145 60.2268 51.2658 59.6891 51.6306 58.9594L55.8651 61.1198C55.3274 62.4833 54.4152 63.5395 53.1285 64.2884C51.8419 65.0374 50.3152 65.4118 48.5484 65.4118Z" fill="#0582FF"/>
<path d="M30.6622 65.4118C28.9531 65.4118 27.436 65.0662 26.1109 64.3748C24.7858 63.6835 23.7392 62.7329 22.9711 61.5231C22.2221 60.294 21.8477 58.8921 21.8477 57.3174C21.8477 55.7427 22.2221 54.3504 22.9711 53.1406C23.7392 51.9308 24.7858 50.9898 26.1109 50.3176C27.436 49.6263 28.9531 49.2806 30.6622 49.2806C32.3713 49.2806 33.8884 49.6263 35.2135 50.3176C36.5578 50.9898 37.6044 51.9308 38.3533 53.1406C39.1023 54.3504 39.4768 55.7427 39.4768 57.3174C39.4768 58.8921 39.1023 60.294 38.3533 61.5231C37.6044 62.7329 36.5578 63.6835 35.2135 64.3748C33.8884 65.0662 32.3713 65.4118 30.6622 65.4118ZM30.6622 61.0622C31.2959 61.0622 31.8528 60.9181 32.3329 60.6301C32.8322 60.342 33.2259 59.9195 33.514 59.3626C33.802 58.7865 33.9461 58.1048 33.9461 57.3174C33.9461 56.5301 33.802 55.8675 33.514 55.3298C33.2259 54.7729 32.8322 54.3504 32.3329 54.0624C31.8528 53.7743 31.2959 53.6303 30.6622 53.6303C30.0477 53.6303 29.4908 53.7743 28.9915 54.0624C28.5114 54.3504 28.1177 54.7729 27.8104 55.3298C27.5224 55.8675 27.3784 56.5301 27.3784 57.3174C27.3784 58.1048 27.5224 58.7865 27.8104 59.3626C28.1177 59.9195 28.5114 60.342 28.9915 60.6301C29.4908 60.9181 30.0477 61.0622 30.6622 61.0622Z" fill="#0582FF"/>
<path d="M7 65.1526V44.9886H12.7035V60.6301H22.3246V65.1526H7Z" fill="#0582FF"/>
<path d="M70.9972 33.8624L71.2943 21.0031L77.7678 21.6922L75.3225 34.3228L70.9972 33.8624ZM72.3692 41.6561C71.4144 41.5545 70.663 41.1752 70.1149 40.5181C69.5669 39.8611 69.3365 39.122 69.4239 38.3009C69.5134 37.4607 69.8931 36.7962 70.5631 36.3075C71.2352 35.7997 72.0486 35.5966 73.0034 35.6982C73.9582 35.7998 74.7011 36.1686 75.2321 36.8045C75.7842 37.4233 76.0156 38.1529 75.9261 38.9931C75.8387 39.8142 75.458 40.4882 74.7839 41.0152C74.1289 41.5441 73.324 41.7578 72.3692 41.6561Z" fill="#0582FF"/>
<path d="M51.0552 47.066C50.251 46.8788 49.4678 46.5586 48.7057 46.1053C47.958 45.675 47.3795 45.1953 46.9703 44.6663L49.6902 41.3657C49.9428 41.7202 50.2575 42.0202 50.6342 42.2656C51.0252 42.534 51.4265 42.7161 51.838 42.8118C52.4178 42.9467 52.9065 42.9224 53.3042 42.7389C53.7018 42.5553 54.0874 42.2113 54.4611 41.7068L55.5738 40.1024L56.1186 39.6672L64.2511 28.1027L69.3293 29.2842L59.0825 43.5805C58.2542 44.768 57.4091 45.6459 56.5473 46.2144C55.6999 46.8059 54.8205 47.1533 53.9092 47.2568C53.0166 47.3646 52.0653 47.301 51.0552 47.066ZM54.3064 42.4989L51.2891 25.0869L56.7601 26.3598L58.8388 39.7974L54.3064 42.4989Z" fill="#0582FF"/>
<path d="M41.9137 40.5639C40.0828 40.3487 38.521 39.8171 37.2285 38.969C35.9573 38.1042 35.0109 37.0262 34.3892 35.7349C33.7888 34.4268 33.5795 33.0004 33.761 31.4555C33.9426 29.9106 34.4664 28.58 35.3324 27.4636C36.2197 26.3304 37.351 25.5062 38.7264 24.9911C40.1041 24.457 41.6035 24.2852 43.2246 24.4757C44.7504 24.6551 46.1057 25.1334 47.2905 25.9108C48.4776 26.669 49.3724 27.6927 49.975 28.9817C50.5776 30.2707 50.778 31.7734 50.5763 33.49C50.5538 33.6807 50.5185 33.8989 50.4703 34.1446C50.4221 34.3903 50.3761 34.6169 50.3324 34.8245L38.0592 33.3819L38.3955 30.521L47.7792 31.624L45.6252 32.1829C45.7272 31.4795 45.6654 30.8535 45.4399 30.3049C45.2334 29.7585 44.899 29.3132 44.4368 28.9688C43.9936 28.6267 43.4477 28.4175 42.7993 28.3413C42.1508 28.265 41.5618 28.3408 41.0323 28.5686C40.5219 28.7987 40.1018 29.165 39.772 29.6677C39.4444 30.1512 39.2392 30.7459 39.1562 31.4516L39.0587 32.2812C38.9691 33.0441 39.0443 33.72 39.2844 34.309C39.5437 34.9002 39.951 35.3832 40.5063 35.7578C41.064 36.1134 41.7528 36.3394 42.573 36.4358C43.3359 36.5255 43.9966 36.4968 44.5553 36.3498C45.1353 36.1859 45.7193 35.9065 46.3071 35.5115L48.8183 38.8231C47.978 39.5558 46.9886 40.0776 45.8499 40.3885C44.7134 40.6803 43.4014 40.7387 41.9137 40.5639Z" fill="#0582FF"/>
<path d="M24.3082 22.9559L29.8857 21.7636L34.101 41.4821L28.5235 42.6744L24.3082 22.9559ZM20.9178 44.3003L15.3403 45.4926L11.125 25.7742L16.7025 24.5818L20.9178 44.3003ZM27.2739 34.8999L18.8795 36.6944L17.8919 32.0747L26.2863 30.2801L27.2739 34.8999Z" fill="#0582FF"/>
</svg>
